# xmcd
#
# Track frame offsets: 
#        150
#        15383
#        28875
#        42311
#        56887
#        77476
#        90789
#        105322
#        119851
#        134683
#        149315
#        163896
#        176979
#        189908
#        203639
#        218372
#        232171
#        245235
#
# Disc length: 3446 seconds
#
# Revision: 0
# Processed by: cddbd v1.4PL0 Copyright (c) Steve Scherf et al.
# Submitted via: ExactAudioCopy v0.90b4
#
DISCID=010d7412
DTITLE=Jimmy Rushing with Count Basie and his Orchestra - The Best Of
DYEAR=1900
DGENRE=Acoustic
TTITLE0=Goin' To Chicago Blues
TTITLE1=How Long Blues
TTITLE2=Jimmy's Blues
TTITLE3=Rusty Dusty Blues
TTITLE4=Harvard Blues
TTITLE5=Undecided Blues
TTITLE6=Take Me Back, Baby
TTITLE7=Lost The Blackout Blues
TTITLE8=The Blues I Like To Hear
TTITLE9=I Left My Baby
TTITLE10=Evil Blues
TTITLE11=Sent For You Yesterday And Here You Come Today
TTITLE12=Boogie Woogie (I May Be Wrong)
TTITLE13=Blues In The Dark
TTITLE14=For The Good Of Your Country
TTITLE15=I'm Gonna Move The Outskirts of Town
TTITLE16=Baby, Don't Tell Me On
TTITLE17=Evenin'
EXTD=
EXTT0=
EXTT1=
EXTT2=
EXTT3=
EXTT4=
EXTT5=
EXTT6=
EXTT7=
EXTT8=
EXTT9=
EXTT10=
EXTT11=
EXTT12=
EXTT13=
EXTT14=
EXTT15=
EXTT16=
EXTT17=
PLAYORDER=
